<?xml version="1.0" encoding="UTF-8"?>
<svg xmlns="http://www.w3.org/2000/svg" id="Layer_1" data-name="Layer 1" viewBox="0 0 24 24">
  <path d="m22.943,3.714c-.671-.571-1.56-.817-2.439-.674-.212.034-.416.093-.609.172-.347-1.273-1.513-2.213-2.894-2.213-.535,0-1.037.141-1.472.388-.534-.833-1.467-1.388-2.528-1.388-1.382,0-2.548.939-2.895,2.213-.194-.079-.397-.138-.609-.173-.879-.142-1.768.103-2.439.674-.672.571-1.057,1.404-1.057,2.286v8.698l-.956-.893c-1.208-1.125-3.107-1.061-4.234.145-1.129,1.208-1.066,3.11.13,4.231l3.294,3.176c2.436,2.349,5.64,3.642,9.023,3.642h1.743c4.962,0,9-4.038,9-9V6c0-.881-.385-1.714-1.057-2.286Zm-.943,11.286c0,3.86-3.14,7-7,7h-1.743c-2.862,0-5.574-1.094-7.635-3.081l-3.304-3.186c-.403-.378-.424-1.013-.047-1.417.376-.401,1.008-.422,1.409-.048l2.638,2.463c.292.272.717.344,1.081.186.365-.159.602-.519.602-.917V5c0-.294.128-.572.353-.762.228-.193.519-.272.823-.224.462.076.825.556.825,1.093v4.893c0,.552.448,1,1,1s1-.448,1-1V3c0-.551.449-1,1-1s1,.449,1,1v7c0,.552.448,1,1,1s1-.448,1-1v-6c0-.551.449-1,1-1s1,.449,1,1v6c0,.552.448,1,1,1s1-.448,1-1v-3.893c0-.538.362-1.018.825-1.093.303-.047.595.03.823.224.224.19.353.468.353.762v9Z"/>
</svg>
