<?xml version="1.0" encoding="UTF-8" standalone="no"?><!DOCTYPE svg PUBLIC "-//W3C//DTD SVG 1.1//EN" "http://www.w3.org/Graphics/SVG/1.1/DTD/svg11.dtd"><svg width="100%" height="100%" viewBox="0 0 10343 3271" version="1.1" xmlns="http://www.w3.org/2000/svg" xmlns:xlink="http://www.w3.org/1999/xlink" xml:space="preserve" xmlns:serif="http://www.serif.com/" style="fill-rule:evenodd;clip-rule:evenodd;stroke-linecap:round;stroke-linejoin:round;"><rect id="Artboard2" x="0" y="0" width="10343" height="3271" style="fill:none;"/><path d="M1321.42,2493.45l525.358,12.614c0,-0 -77.55,-466.543 231.257,-676.953c465.884,-317.437 213.342,-691.005 -8.409,-605.474c-158.934,61.302 -246.646,254.286 -273.304,243.871c-6.426,-2.51 -4.142,-114.819 50.456,-377.216c80.135,-385.13 -632.999,-473.613 -647.52,-16.819c-10.711,336.934 96.897,359.362 147.39,452.901c3.523,6.526 -121.47,-129.913 -311.373,-150.164c-215.361,-22.967 -390.426,318.259 88.298,524.38c334.282,143.93 129.379,566.047 197.847,592.86Z" style="stroke:#000;stroke-width:26.07px;"/><path d="M6653.34,1170.44c154.854,-433.46 464.561,-433.46 619.417,-260.258c154.86,173.202 194.034,547.183 -0,866.01c-105.931,174.06 -379.688,440.291 -619.417,692.808c-162.289,-224.805 -438.542,-486.439 -619.417,-692.808c-239.912,-273.727 -154.854,-692.808 -0,-866.01c154.855,-173.202 464.563,-173.202 619.417,260.258Z" style="fill:#c84639;stroke:#c84639;stroke-width:26.07px;"/><path d="M8985.85,746.5l539,889l-539,889l-539,-889l539,-889Z" style="fill:#c84639;stroke:#c84639;stroke-width:26.07px;"/><path d="M3884.37,2486.78c-1.895,-0.089 523.427,-0 523.427,-0c-26.087,-52.173 -341.9,-444.392 274.909,-737.669c513.044,-243.939 -532.796,-976.138 -552.018,-964.749c-127.591,75.599 -1035.49,691.651 -486.772,964.749c612.438,304.813 248.104,738.027 240.454,737.669Z" style="stroke:#000;stroke-width:26.07px;"/></svg>